# xmcd
#
# Track frame offsets:
#	150
#	30325
#	59167
#	77738
#	94170
#	109105
#	131121
#	147617
#	165420
#	180948
#	209528
#	224882
#	242377
#	256955
#	274027
#	297806
#	319968
#
# Disc length: 4570 seconds
# Revision: 0
# Processed by: cddbd v1.5.2PL0 Copyright (c) Steve Scherf et al.
# Submitted via: dBpowerAMP V12.0
#
DISCID=0411d811
DTITLE=Dr John - The Lost Broadcast Dr John At the Ultrasonic Studio New York 1973
DYEAR=1973
DGENRE=Blues
TTITLE0=Loop Garoo
TTITLE1=I Walk On Guilded Splinters
TTITLE2=Danse Kalinda Ba Boom
TTITLE3=Stag-o-Lee
TTITLE4=Travelin' Mood
TTITLE5=Hard Sentence
TTITLE6=Life
TTITLE7=Put A Love Letter In Your Heart
TTITLE8=Tipitina
TTITLE9=Mess Around
TTITLE10=I've Been Hoodooed
TTITLE11=Such A Night
TTITLE12=Right Place Wrong Time
TTITLE13=(Come On) Let The Good Times Roll
TTITLE14=Wang Dang Doodle
TTITLE15=Mama Roux
TTITLE16=Qualified
EXTD=
EXTT0=
EXTT1=
EXTT2=
EXTT3=
EXTT4=
EXTT5=
EXTT6=
EXTT7=
EXTT8=
EXTT9=
EXTT10=
EXTT11=
EXTT12=
EXTT13=
EXTT14=
EXTT15=
EXTT16=
PLAYORDER=
